<svg xmlns="http://www.w3.org/2000/svg" viewBox="0 0 500 720" fill="none">
	<g stroke="#f8e8dd" stroke-linecap="round">
		<path d="M114 720C157 566 191 414 222 214" stroke-width="2"/>
		<path d="M178 720C224 544 266 384 321 151" stroke-width="1.8"/>
		<path d="M259 720C285 565 323 443 392 304" stroke-width="1.6"/>
		<g stroke-width="1.2">
			<path d="M222 214C157 181 128 119 146 43"/>
			<path d="M222 214C179 160 174 93 208 20"/>
			<path d="M222 214C226 150 250 87 292 39"/>
			<path d="M222 214C272 168 307 116 322 57"/>
			<path d="M321 151C279 123 259 80 269 31"/>
			<path d="M321 151C326 100 345 59 377 24"/>
			<path d="M321 151C363 122 394 84 412 39"/>
			<path d="M392 304C357 270 348 226 364 177"/>
			<path d="M392 304C406 259 433 225 474 200"/>
		</g>
		<g stroke-width=".9" opacity=".75">
			<path d="M146 43L121 88M146 43L174 90M208 20L184 77M208 20L237 72M292 39L260 94M292 39L314 103M322 57L299 113M322 57L352 111"/>
			<path d="M269 31L249 75M269 31L294 77M377 24L353 76M377 24L405 73M412 39L389 89M412 39L438 86"/>
			<path d="M364 177L343 221M364 177L390 224M474 200L446 239M474 200L491 247"/>
		</g>
	</g>
</svg>
